<svg xmlns="http://www.w3.org/2000/svg" version="1.1" xmlns:xlink="http://www.w3.org/1999/xlink" xmlns:svgjs="http://svgjs.dev/svgjs" width="1000" height="999" viewBox="0 0 1000 999"><g transform="matrix(1,0,0,1,-0.215743440233382,-0.21552769679306039)"><svg viewBox="0 0 343 343" data-background-color="#0a1627" preserveAspectRatio="xMidYMid meet" height="999" width="1000" xmlns="http://www.w3.org/2000/svg" xmlns:xlink="http://www.w3.org/1999/xlink"><g id="tight-bounds" transform="matrix(1,0,0,1,0.0740000000000407,0.07400000000001228)"><svg viewBox="0 0 342.85155851775386 342.85155851775386" height="342.85155851775386" width="342.85155851775386"><g><svg></svg></g><g><svg viewBox="0 0 342.85155851775386 342.85155851775386" height="342.85155851775386" width="342.85155851775386"><g><path d="M0 171.426c0-94.676 76.75-171.426 171.426-171.426 94.676 0 171.426 76.75 171.426 171.426 0 94.676-76.75 171.426-171.426 171.426-94.676 0-171.426-76.75-171.426-171.426zM171.426 330.072c87.618 0 158.647-71.028 158.646-158.646 0-87.618-71.028-158.647-158.646-158.647-87.618 0-158.647 71.028-158.647 158.647 0 87.618 71.028 158.647 158.647 158.646z" data-fill-palette-color="tertiary" fill="#fe0039" stroke="transparent"></path><ellipse rx="164.56874808852186" ry="164.56874808852186" cx="171.42577925887693" cy="171.42577925887693" fill="#fe0039" stroke="transparent" stroke-width="0" fill-opacity="1" data-fill-palette-color="tertiary"></ellipse></g><g transform="matrix(1,0,0,1,64.84655864529837,100.57255207194737)"><svg viewBox="0 0 213.1584412271571 141.70645437385912" height="141.70645437385912" width="213.1584412271571"><g><svg viewBox="0 0 213.1584412271571 141.70645437385912" height="141.70645437385912" width="213.1584412271571"><g><svg viewBox="0 0 213.1584412271571 141.70645437385912" height="141.70645437385912" width="213.1584412271571"><g><svg viewBox="0 0 213.1584412271571 141.70645437385912" height="141.70645437385912" width="213.1584412271571"><g id="textblocktransform"><svg viewBox="0 0 213.1584412271571 141.70645437385912" height="141.70645437385912" width="213.1584412271571" id="textblock"><g><svg viewBox="0 0 213.1584412271571 141.70645437385912" height="141.70645437385912" width="213.1584412271571"><g transform="matrix(1,0,0,1,0,0)"><svg width="213.1584412271571" viewBox="1.399999976158142 -34.900001525878906 53.39999771118164 35.5" height="141.70645437385912" data-palette-color="#0a1627"><path d="M4.9-34.9L21.1-34.9 21.1-9.05Q21.1-6.85 20.38-5.05 19.65-3.25 18.32-2 17-0.75 15.15-0.08 13.3 0.6 11.1 0.6L11.1 0.6Q7.05 0.6 4.58-1.58 2.1-3.75 1.4-7.35L1.4-7.35 5.2-8.25Q5.7-6 7.1-4.58 8.5-3.15 11.2-3.15L11.2-3.15Q13.9-3.15 15.4-4.8 16.9-6.45 16.9-9.8L16.9-9.8 16.9-31.2 4.9-31.2 4.9-34.9ZM34.35-15L34.35 0 30.15 0 30.15-34.9 44.05-34.9Q48.65-34.9 51.22-32.35 53.8-29.8 53.8-25L53.8-25Q53.8-21.15 52.02-18.68 50.25-16.2 46.8-15.4L46.8-15.4 54.8 0 50.05 0 42.5-15 34.35-15ZM34.35-18.6L44.05-18.6Q46.55-18.6 47.92-19.9 49.3-21.2 49.3-23.6L49.3-23.6 49.3-26.2Q49.3-28.6 47.92-29.9 46.55-31.2 44.05-31.2L44.05-31.2 34.35-31.2 34.35-18.6Z" opacity="1" transform="matrix(1,0,0,1,0,0)" fill="#0a1627" class="undefined-text-0" data-fill-palette-color="quaternary" id="text-0"></path></svg></g></svg></g></svg></g></svg></g><g></g></svg></g></svg></g></svg></g></svg></g><defs></defs></svg><rect width="342.85155851775386" height="342.85155851775386" fill="none" stroke="none" visibility="hidden"></rect></g></svg></g></svg>